%TF.GenerationSoftware,Altium Limited,Altium Designer,25.8.1 (18)*%
G04 Layer_Color=128*
%FSLAX45Y45*%
%MOMM*%
%TF.SameCoordinates,C91546C2-10F2-4142-A55A-9FF34A01A7B4*%
%TF.FilePolarity,Positive*%
%TF.FileFunction,Paste,Bot*%
%TF.Part,Single*%
G01*
G75*
%TA.AperFunction,SMDPad,CuDef*%
%ADD22R,1.60000X1.05000*%
%ADD25R,0.57247X0.61535*%
%ADD27R,1.05000X1.60000*%
%ADD29R,2.20000X1.40000*%
%ADD43R,1.45620X1.25464*%
%ADD169R,1.25464X1.45620*%
%ADD170R,0.30000X0.17500*%
D22*
X4320000Y6960000D02*
D03*
X4780000Y6222500D02*
D03*
X4538131Y6227211D02*
D03*
X4050000Y6230000D02*
D03*
X4780000Y6517500D02*
D03*
X4320000Y6665000D02*
D03*
X4538131Y6522211D02*
D03*
X4050000Y6525000D02*
D03*
D25*
X7097654Y4612640D02*
D03*
Y4526927D02*
D03*
D27*
X3567100Y6382660D02*
D03*
X3862100D02*
D03*
D29*
X5130000Y5910000D02*
D03*
X4710000Y6890000D02*
D03*
D43*
X7324487Y4752109D02*
D03*
Y4586953D02*
D03*
D169*
X6730742Y4462930D02*
D03*
X6895898D02*
D03*
D170*
X12611100Y9317360D02*
D03*
Y9437360D02*
D03*
Y9357360D02*
D03*
Y9397360D02*
D03*
X12666100D02*
D03*
Y9437360D02*
D03*
Y9317360D02*
D03*
Y9357360D02*
D03*
X11350160Y8971600D02*
D03*
Y9011600D02*
D03*
Y9051600D02*
D03*
Y8931600D02*
D03*
X11405160Y8971600D02*
D03*
Y9011600D02*
D03*
Y9051600D02*
D03*
Y8931600D02*
D03*
%TF.MD5,54c98469695d5096b0f50b78c237bfea*%
M02*
