%TF.GenerationSoftware,Altium Limited,Altium Designer,25.8.1 (18)*%
G04 Layer_Physical_Order=3*
G04 Layer_Color=36540*
%FSLAX45Y45*%
%MOMM*%
%TF.SameCoordinates,716D66D7-A0E9-4909-A487-8E51579E39AF*%
%TF.FilePolarity,Positive*%
%TF.FileFunction,Copper,L3,Inr,Signal*%
%TF.Part,Single*%
G01*
G75*
%TA.AperFunction,Conductor*%
%ADD133C,0.25400*%
%ADD135C,0.50000*%
%ADD138C,0.40000*%
%ADD141C,0.45000*%
%TA.AperFunction,ComponentPad*%
%ADD148C,1.10000*%
%ADD149C,1.60000*%
%ADD153C,0.65000*%
%TA.AperFunction,ViaPad*%
%ADD161C,0.60000*%
%TA.AperFunction,Conductor*%
%ADD162C,0.16725*%
%ADD163C,0.10154*%
G36*
X5206456Y8367912D02*
X4607388Y7746449D01*
X4586093Y7760000D01*
X3800000D01*
Y7800000D01*
Y8000000D01*
X3900000D01*
Y7800000D01*
X4523237D01*
X4501248Y7813993D01*
X5140000Y8400000D01*
X5206456Y8367912D01*
D02*
G37*
G36*
X10711180Y8200390D02*
Y7912100D01*
X10718800D01*
X10817860Y7813040D01*
X10551160Y7546340D01*
X10517464D01*
Y7493000D01*
X9827260D01*
X9822180Y7487920D01*
X9797920D01*
X9790000Y7480000D01*
X9791098Y7487920D01*
X9621519D01*
X9471660Y7637780D01*
Y7853997D01*
X9384937Y7929880D01*
X9108440D01*
Y8067040D01*
X9387840Y8064500D01*
Y8018780D01*
X9636760Y7769860D01*
X9703921D01*
X9692367Y7714253D01*
X9806631Y7599989D01*
X9806940Y7602220D01*
X10502900D01*
X10504170Y7600950D01*
X10507980Y7604760D01*
Y7912100D01*
X10619740D01*
Y8218170D01*
X10690860D01*
X10711180Y8200390D01*
D02*
G37*
G36*
X15285719Y9405620D02*
Y7665720D01*
X15425420D01*
Y7137399D01*
X15539719Y6794500D01*
X15425420Y6680201D01*
Y6444277D01*
X15580360Y6446520D01*
Y6197600D01*
X15534641Y6151880D01*
X10594340D01*
Y6154420D01*
X10513060Y6073140D01*
X8813000D01*
X8803906Y5990000D01*
X7970000D01*
Y5200000D01*
X8050000D01*
Y5010000D01*
X8730000D01*
X8730000Y4830000D01*
X8774240D01*
X9527540Y4076700D01*
Y3723640D01*
X9692640D01*
X9712960Y3703320D01*
Y2887980D01*
X9486900D01*
X9375140Y2999740D01*
Y3721100D01*
X9380066Y3721254D01*
X8602980Y4498340D01*
Y4830000D01*
X8050000D01*
Y4710000D01*
X7051040D01*
Y5200000D01*
X7880000D01*
Y5990000D01*
X7840000D01*
Y6320000D01*
X7822656Y6337344D01*
X8877205Y6660165D01*
X8838287Y6304343D01*
X9050020Y6312566D01*
Y7533640D01*
X9149080D01*
Y6339840D01*
X9171631Y6317289D01*
X10668000Y6375400D01*
X14765021Y6434716D01*
Y9464040D01*
X14996159Y9695179D01*
X15285719Y9405620D01*
D02*
G37*
G36*
X6240000Y7145000D02*
X6162040D01*
Y5880000D01*
X6350000D01*
Y5370000D01*
X5280000D01*
Y5659572D01*
X4715607Y5662590D01*
X4600080Y5778118D01*
X4544060D01*
Y5834138D01*
X4520241Y5857958D01*
X4544060D01*
Y6058630D01*
X3700339D01*
Y6154980D01*
X3495319Y6360000D01*
X3285318Y6570000D01*
X3165319D01*
Y6640000D01*
X3285319D01*
D01*
X3403945Y7254698D01*
X3501981Y7156662D01*
X3496397Y6488921D01*
X3515319Y6470000D01*
X3745319D01*
Y6184170D01*
X4544060D01*
Y6324061D01*
X4595319Y6375319D01*
Y6799580D01*
X4695319D01*
Y6475319D01*
X4701881Y6481882D01*
X4698545Y5857958D01*
X5287958D01*
X5310000Y5880000D01*
X6078220D01*
Y7145000D01*
X5979160D01*
Y7435000D01*
X6240000D01*
Y7145000D01*
D02*
G37*
G36*
X6965552Y11995552D02*
X6960000Y11990000D01*
Y11540000D01*
D01*
X7109999Y11540000D01*
X7110000Y10489411D01*
X6393180Y8581790D01*
Y8361798D01*
X6587905Y8418039D01*
X6637296Y6190000D01*
X6660000D01*
X6690000Y6200000D01*
X7462205D01*
Y6655115D01*
X7449820Y6667500D01*
X7465060Y6682740D01*
X7561580D01*
Y6685280D01*
X7787640D01*
X7790180Y6687820D01*
X7797800Y6680200D01*
Y6586220D01*
X7581900D01*
Y6200000D01*
X7690000D01*
Y6110000D01*
X7700000Y6100000D01*
X6639291D01*
X6644053Y5885180D01*
X7315200D01*
Y5730240D01*
X7299960Y5715000D01*
X6647825D01*
X6648204Y5697896D01*
X6396441Y5739856D01*
X6381332Y8140000D01*
X5660862D01*
X5570000Y7830000D01*
X5439080Y7546340D01*
X5539740D01*
Y7417240D01*
X5528750Y7406250D01*
X5520740Y7414260D01*
X5378120D01*
X5300000Y7245000D01*
Y7095000D01*
X5260000D01*
Y6900000D01*
X4345319D01*
Y6600000D01*
X4045319D01*
Y6900000D01*
X4200000D01*
Y7120000D01*
X4750000D01*
Y7245000D01*
Y7810000D01*
X5025594Y7977027D01*
X6325968Y9799319D01*
X6354191D01*
X6446503Y11052760D01*
X6730000Y11384857D01*
Y12010000D01*
X6835000D01*
Y12300000D01*
X6650000D01*
Y12650000D01*
X6835000D01*
Y12675000D01*
X6830000Y12680000D01*
X6965552D01*
Y11995552D01*
D02*
G37*
%LPC*%
G36*
X15186659Y6441440D02*
X15186031Y6440811D01*
X15186659Y6440820D01*
Y6441440D01*
D02*
G37*
%LPD*%
D133*
X6020000Y5850000D02*
X6021260Y5851260D01*
X3435319Y7180000D02*
X3489619Y7234300D01*
X3509619D01*
X3595319Y7320000D01*
Y7630000D01*
X6050000Y7170000D02*
X6100000Y7120000D01*
Y7000000D02*
Y7120000D01*
Y7000000D02*
X6120000Y6980000D01*
X6100000Y7000000D02*
X6150000Y7050000D01*
X6120000Y5870000D02*
X6140000Y5850000D01*
X6100000Y5890000D02*
X6120000Y5870000D01*
Y6980000D01*
X6150000Y7050000D02*
Y7210000D01*
X3645319Y7680000D02*
X3745319D01*
X3595319Y7630000D02*
X3645319Y7680000D01*
X3800000Y7730000D02*
Y7900000D01*
X3750000Y7680000D02*
X3800000Y7730000D01*
X7880000Y5190000D02*
Y6080000D01*
X7950000Y5180000D02*
Y6070000D01*
X7970000Y6090000D01*
X8017957D01*
X8050057Y6057900D01*
X8059420D01*
X7880000Y6080000D02*
X7914167Y6114167D01*
X7948140D01*
X7954607Y6107700D02*
X7984220D01*
X7948140Y6114167D02*
X7954607Y6107700D01*
X7984220D02*
X7990840Y6101080D01*
X9354340Y8016720D02*
X9575800Y7795260D01*
X9288300Y8016720D02*
X9354340D01*
X9286240Y8018780D02*
X9288300Y8016720D01*
X10505440Y7523480D02*
X10528300Y7546340D01*
X10419080Y7584440D02*
X10434320D01*
X9641840Y7716520D02*
X9669780D01*
X9575800Y7594200D02*
Y7795260D01*
X9669780Y7716520D02*
X9707880Y7754620D01*
Y7823200D01*
X11028680Y7790180D02*
X11074400Y7744460D01*
X10728634Y7790180D02*
X11028680D01*
X11074400Y7744460D02*
X11300460D01*
X11396980Y7840980D01*
X11498580D01*
X10510520Y7848600D02*
Y7914640D01*
X10833897Y7881620D02*
X10864377Y7851140D01*
X10768330Y7862570D02*
X10787380Y7881620D01*
X10833897D01*
X10864377Y7851140D02*
X10873740D01*
X10402087Y8003540D02*
X10449847Y7955780D01*
X10469380D02*
X10510520Y7914640D01*
X10449847Y7955780D02*
X10469380D01*
X10401300Y8003540D02*
X10402087D01*
X15125700Y10589260D02*
X15339059Y10802620D01*
X15125700Y9931400D02*
Y10589260D01*
X3408680Y9931400D02*
X3467100Y9872980D01*
Y9157263D02*
Y9872980D01*
X3475000Y9140000D02*
Y9149363D01*
X3467100Y9157263D02*
X3475000Y9149363D01*
X8496300Y11432540D02*
X9144000Y10784840D01*
X10530840D01*
X8496300Y11432540D02*
Y11968480D01*
X10668706Y11132114D02*
X10751820Y11049000D01*
X10594340Y11249660D02*
X10668706Y11175294D01*
Y11132114D02*
Y11175294D01*
X9801860Y11264539D02*
X9816739Y11249660D01*
X10594340D01*
X8981440Y11681460D02*
X9723120D01*
X8514080Y12148820D02*
X8981440Y11681460D01*
X8514080Y12148820D02*
Y12242800D01*
X8331200D02*
X8440420Y12352020D01*
X8331200Y12133580D02*
Y12242800D01*
X9801860Y11264539D02*
Y11602720D01*
X9723120Y11681460D02*
X9801860Y11602720D01*
X8331200Y12133580D02*
X8496300Y11968480D01*
D135*
X9001760Y4579620D02*
X9474200Y5052060D01*
Y5372100D01*
D138*
X4110000Y10580000D02*
X4160000Y10530000D01*
D141*
X3643000Y10580000D02*
X4110000D01*
D148*
X6747500Y12128800D02*
D03*
D149*
X13627499D02*
D03*
D153*
X3643000Y10580000D02*
D03*
D161*
X6775400Y11638280D02*
D03*
X6950650Y11488420D02*
D03*
X7036960Y11478260D02*
D03*
X6779260Y11869420D02*
D03*
X6776720Y11762740D02*
D03*
X6890000Y12257500D02*
D03*
X6913880Y12349480D02*
D03*
X7750520Y6630464D02*
D03*
X7660000Y6170000D02*
D03*
X6870000Y11490000D02*
D03*
X7239000Y5839460D02*
D03*
X7241540Y5763260D02*
D03*
X6791960Y12458700D02*
D03*
X6780000Y12610000D02*
D03*
X6702805Y12542814D02*
D03*
X6703060Y12430940D02*
D03*
X5467607Y7498467D02*
D03*
X5257800Y7297420D02*
D03*
X5219700Y7216140D02*
D03*
Y7134860D02*
D03*
X4092339Y6819900D02*
D03*
X4171079Y6817360D02*
D03*
X4135319Y6670000D02*
D03*
X3698639Y6248400D02*
D03*
X3215319Y6610000D02*
D03*
X5549230Y5510378D02*
D03*
X5889789Y5505334D02*
D03*
X5729230Y5510378D02*
D03*
X4653679Y6753860D02*
D03*
X6069788Y5505334D02*
D03*
X6150000Y7210000D02*
D03*
X6037580Y7391400D02*
D03*
X3870000Y7900000D02*
D03*
X5140000Y8350000D02*
D03*
X7195820Y4846320D02*
D03*
X7340600D02*
D03*
X7600000Y4860000D02*
D03*
X7690000D02*
D03*
X7870000D02*
D03*
X7780000D02*
D03*
X8670000Y4930000D02*
D03*
X8059420Y6057900D02*
D03*
X7990840Y6101080D02*
D03*
X9108844Y7507370D02*
D03*
X9179560Y8023860D02*
D03*
X9286240Y8018780D02*
D03*
X9474200Y5372100D02*
D03*
X9657080Y2926080D02*
D03*
X9707880Y7823200D02*
D03*
X10873740Y7851140D02*
D03*
X15354300Y7454900D02*
D03*
X15356841Y7538720D02*
D03*
X11498580Y7840980D02*
D03*
X10401300Y8003540D02*
D03*
X10657840Y8173720D02*
D03*
X14917419Y9326880D02*
D03*
X15036800Y9316720D02*
D03*
X15339059Y10802620D02*
D03*
X15125700Y9931400D02*
D03*
X10604500Y10985500D02*
D03*
X10543540Y10919460D02*
D03*
X4160000Y10530000D02*
D03*
X3408680Y9931400D02*
D03*
X3475000Y9140000D02*
D03*
X8977308Y12314868D02*
D03*
X9032240Y12377420D02*
D03*
X9062720Y11427460D02*
D03*
X11445240Y11191240D02*
D03*
X11356340Y11193780D02*
D03*
X9135780Y11492022D02*
D03*
X10751820Y11049000D02*
D03*
X8440420Y12352020D02*
D03*
X10530840Y10784840D02*
D03*
X8514080Y12242800D02*
D03*
D162*
X9211664Y12008378D02*
X9369607D01*
X9231018Y12055102D02*
X9388961D01*
X9509570Y11868415D02*
X11123665D01*
X9388961Y12055102D02*
X9528924Y11915140D01*
X11143019D01*
X9369607Y12008378D02*
X9509570Y11868415D01*
X9117837Y12168283D02*
Y12266120D01*
X9032240Y12377420D02*
X9040520Y12369140D01*
X9011290Y12306588D02*
X9071113Y12246766D01*
Y12148929D02*
Y12246766D01*
X8985588Y12306588D02*
X9011290D01*
X8977308Y12314868D02*
X8985588Y12306588D01*
X9071113Y12148929D02*
X9211664Y12008378D01*
X9040520Y12343437D02*
X9117837Y12266120D01*
Y12168283D02*
X9231018Y12055102D01*
X9040520Y12343437D02*
Y12369140D01*
X11445240Y11191240D02*
Y11612919D01*
X11143019Y11915140D02*
X11445240Y11612919D01*
X11356340Y11193780D02*
Y11635740D01*
X11123665Y11868415D02*
X11356340Y11635740D01*
D163*
X9577910Y10955506D02*
X10515619D01*
X10533414Y10964692D02*
X10539363Y10958743D01*
X10600324Y10989676D02*
X10604500Y10985500D01*
X10550047Y11004846D02*
X10565217Y10989676D01*
X10600324D01*
X10515619Y10955506D02*
X10524805Y10964692D01*
X10508173Y11004846D02*
X10550047D01*
X10498986Y10995660D02*
X10508173Y11004846D01*
X10524805Y10964692D02*
X10533414D01*
X9104822Y11428594D02*
X9577910Y10955506D01*
X10539363Y10923637D02*
Y10958743D01*
X9594543Y10995660D02*
X10498986D01*
X10539363Y10923637D02*
X10543540Y10919460D01*
X9135780Y11492022D02*
X9137464Y11490338D01*
Y11452739D02*
Y11490338D01*
Y11452739D02*
X9594543Y10995660D01*
X9063854Y11428594D02*
X9104822D01*
X9062720Y11427460D02*
X9063854Y11428594D01*
%TF.MD5,ae17c0035e790bb5099d9a61577c40cc*%
M02*
