%TF.GenerationSoftware,Altium Limited,Altium Designer,25.8.1 (18)*%
G04 Layer_Color=255*
%FSLAX45Y45*%
%MOMM*%
%TF.SameCoordinates,716D66D7-A0E9-4909-A487-8E51579E39AF*%
%TF.FilePolarity,Positive*%
%TF.FileFunction,Pads,Bot*%
%TF.Part,Single*%
G01*
G75*
%TA.AperFunction,SMDPad,CuDef*%
%ADD25R,1.60000X1.05000*%
%ADD34R,0.91213X0.95814*%
%ADD36R,2.20000X1.40000*%
%ADD39R,1.05000X1.60000*%
%TA.AperFunction,ComponentPad*%
%ADD148C,1.10000*%
%ADD149C,1.60000*%
%ADD150R,1.45000X1.45000*%
%ADD151C,1.45000*%
%ADD152C,2.80000*%
%ADD153C,0.65000*%
%ADD154O,1.60000X1.00000*%
%ADD155C,2.50000*%
%ADD156R,2.50000X2.50000*%
%ADD157C,0.99100*%
%ADD158C,1.20000*%
%ADD159R,1.20000X1.20000*%
%TA.AperFunction,WasherPad*%
%ADD160C,1.52400*%
%TA.AperFunction,SMDPad,CuDef*%
%ADD166R,0.30000X0.17500*%
D25*
X3876040Y7081340D02*
D03*
X4320000Y6665000D02*
D03*
X3675380Y6781620D02*
D03*
X4320000Y6960000D02*
D03*
X3876040Y7376340D02*
D03*
X3675380Y7076620D02*
D03*
D34*
X8170035Y5883228D02*
D03*
X7871460Y6247439D02*
D03*
Y6102041D02*
D03*
X8170035Y6028627D02*
D03*
D36*
X4710000Y6890000D02*
D03*
X5130000Y5910000D02*
D03*
D39*
X3840000Y6390000D02*
D03*
X3726360Y6611620D02*
D03*
X3431360D02*
D03*
X3545000Y6390000D02*
D03*
D148*
X6747500Y12128800D02*
D03*
X8650257Y9269600D02*
D03*
X12070759Y9275910D02*
D03*
D149*
X13627499Y12128800D02*
D03*
X10650257Y9269600D02*
D03*
X14070760Y9275910D02*
D03*
D150*
X16485600Y8350000D02*
D03*
D151*
Y8800000D02*
D03*
Y8600000D02*
D03*
Y9050000D02*
D03*
D152*
X16756599Y8043000D02*
D03*
Y9357000D02*
D03*
D153*
X3643000Y10980000D02*
D03*
Y10900000D02*
D03*
Y10500000D02*
D03*
Y10420000D02*
D03*
Y10820000D02*
D03*
Y10580000D02*
D03*
X3573000Y10540000D02*
D03*
Y10460000D02*
D03*
Y10940000D02*
D03*
Y10860000D02*
D03*
Y10620000D02*
D03*
Y10780000D02*
D03*
X3643000Y10660000D02*
D03*
Y10740000D02*
D03*
D154*
X3528000Y11127000D02*
D03*
X3055000D02*
D03*
X3528000Y10273000D02*
D03*
X3055000D02*
D03*
D155*
X5920000Y4170000D02*
D03*
X5524000D02*
D03*
X4336000D02*
D03*
X4732000D02*
D03*
X5128000D02*
D03*
D156*
X3940000D02*
D03*
D157*
X5151415Y11762212D02*
D03*
X5252915Y12524212D02*
D03*
X5049915D02*
D03*
D158*
X11999900Y3343800D02*
D03*
X11278540Y3351420D02*
D03*
D159*
X11799900Y3343800D02*
D03*
X11078540Y3351420D02*
D03*
D160*
X6631940Y8661400D02*
D03*
X12992101Y8620760D02*
D03*
X5880000Y12320000D02*
D03*
X3130000Y3070000D02*
D03*
X17060001Y6600000D02*
D03*
D166*
X11405160Y8931600D02*
D03*
Y9051600D02*
D03*
Y9011600D02*
D03*
Y8971600D02*
D03*
X11350160Y8931600D02*
D03*
Y9051600D02*
D03*
Y9011600D02*
D03*
Y8971600D02*
D03*
X12666100Y9357360D02*
D03*
Y9317360D02*
D03*
Y9437360D02*
D03*
Y9397360D02*
D03*
X12611100D02*
D03*
Y9357360D02*
D03*
Y9437360D02*
D03*
Y9317360D02*
D03*
%TF.MD5,f127e231b939db922be8f7921d5e4438*%
M02*
