%TF.GenerationSoftware,Altium Limited,Altium Designer,25.8.1 (18)*%
G04 Layer_Color=128*
%FSLAX45Y45*%
%MOMM*%
%TF.SameCoordinates,716D66D7-A0E9-4909-A487-8E51579E39AF*%
%TF.FilePolarity,Positive*%
%TF.FileFunction,Paste,Bot*%
%TF.Part,Single*%
G01*
G75*
%TA.AperFunction,SMDPad,CuDef*%
%ADD25R,1.60000X1.05000*%
%ADD34R,0.91213X0.95814*%
%ADD36R,2.20000X1.40000*%
%ADD39R,1.05000X1.60000*%
%ADD166R,0.30000X0.17500*%
D25*
X3876040Y7081340D02*
D03*
X4320000Y6665000D02*
D03*
X3675380Y6781620D02*
D03*
X4320000Y6960000D02*
D03*
X3876040Y7376340D02*
D03*
X3675380Y7076620D02*
D03*
D34*
X8170035Y5883228D02*
D03*
X7871460Y6247439D02*
D03*
Y6102041D02*
D03*
X8170035Y6028627D02*
D03*
D36*
X4710000Y6890000D02*
D03*
X5130000Y5910000D02*
D03*
D39*
X3840000Y6390000D02*
D03*
X3726360Y6611620D02*
D03*
X3431360D02*
D03*
X3545000Y6390000D02*
D03*
D166*
X11405160Y8931600D02*
D03*
Y9051600D02*
D03*
Y9011600D02*
D03*
Y8971600D02*
D03*
X11350160Y8931600D02*
D03*
Y9051600D02*
D03*
Y9011600D02*
D03*
Y8971600D02*
D03*
X12666100Y9357360D02*
D03*
Y9317360D02*
D03*
Y9437360D02*
D03*
Y9397360D02*
D03*
X12611100D02*
D03*
Y9357360D02*
D03*
Y9437360D02*
D03*
Y9317360D02*
D03*
%TF.MD5,4e9b8e9ac4f1113cd1dc87417623b1c9*%
M02*
