%TF.GenerationSoftware,Altium Limited,Altium Designer,25.8.1 (18)*%
G04 Layer_Physical_Order=3*
G04 Layer_Color=36540*
%FSLAX45Y45*%
%MOMM*%
%TF.SameCoordinates,C91546C2-10F2-4142-A55A-9FF34A01A7B4*%
%TF.FilePolarity,Positive*%
%TF.FileFunction,Copper,L3,Inr,Signal*%
%TF.Part,Single*%
G01*
G75*
%TA.AperFunction,Conductor*%
%ADD134C,0.25400*%
%ADD135C,0.40000*%
%ADD137C,0.50000*%
%ADD144C,0.45000*%
%TA.AperFunction,ComponentPad*%
%ADD151C,0.65000*%
%TA.AperFunction,ViaPad*%
%ADD164C,0.60000*%
%TA.AperFunction,Conductor*%
%ADD165C,0.16725*%
%ADD166C,0.10154*%
G36*
X5206456Y8367912D02*
X4607388Y7746449D01*
X4586093Y7760000D01*
X3800000D01*
Y7800000D01*
Y8000000D01*
X3900000D01*
Y7800000D01*
X4523237D01*
X4501248Y7813993D01*
X5140000Y8400000D01*
X5206456Y8367912D01*
D02*
G37*
G36*
X9387840Y8064500D02*
Y8018780D01*
X9806631Y7599989D01*
X9806940Y7602220D01*
X10502900D01*
X10504170Y7600950D01*
X10507980Y7604760D01*
Y7912100D01*
X10718800D01*
X10817860Y7813040D01*
X10551160Y7546340D01*
X10517464D01*
Y7493000D01*
X9827260D01*
X9822180Y7487920D01*
Y7360920D01*
X9748519D01*
X9471660Y7637780D01*
Y7853997D01*
X9384937Y7929880D01*
X9108440D01*
Y8067040D01*
X9387840Y8064500D01*
D02*
G37*
G36*
X15285719Y9405620D02*
Y7665720D01*
X15425420D01*
Y7137399D01*
X15539719Y6794500D01*
X15425420Y6680201D01*
Y6444277D01*
X15580360Y6446520D01*
Y6197600D01*
X15534641Y6151880D01*
X10594340D01*
Y6154420D01*
X10589260Y6149340D01*
X8821334D01*
X8803906Y5990000D01*
X7970000D01*
Y5200000D01*
X8050000D01*
Y5010000D01*
X8730000D01*
X8730000Y4830000D01*
X8774240D01*
X9527540Y4076700D01*
Y3723640D01*
X9692640D01*
X9712960Y3703320D01*
Y2887980D01*
X9486900D01*
X9375140Y2999740D01*
Y3721100D01*
X9380066Y3721254D01*
X8602980Y4498340D01*
Y4830000D01*
X8050000D01*
Y4710000D01*
X7400000D01*
Y5200000D01*
X7880000D01*
Y5990000D01*
X7840000D01*
Y6320000D01*
X7822656Y6337344D01*
X8877205Y6660165D01*
X8838287Y6304343D01*
X9050020Y6312566D01*
Y7533640D01*
X9149080D01*
Y6339840D01*
X9171631Y6317289D01*
X10668000Y6375400D01*
X14765021Y6434716D01*
Y9464040D01*
X14996159Y9695179D01*
X15285719Y9405620D01*
D02*
G37*
G36*
X6240000Y7145000D02*
X6149320D01*
X6139180Y7134860D01*
Y5880000D01*
X6350000D01*
Y5370000D01*
X5280000D01*
Y5659572D01*
X4715607Y5662590D01*
X4600080Y5778118D01*
X4502042D01*
Y6100000D01*
X3700000D01*
Y6184533D01*
X3524533Y6360000D01*
X3500000D01*
X3290000Y6570000D01*
X3170000D01*
Y6640000D01*
X3290000D01*
D01*
X3408626Y7254698D01*
X3506662Y7156662D01*
X3501078Y6488921D01*
X3520000Y6470000D01*
X3750000D01*
Y6234533D01*
X3747734Y6232266D01*
X4502042D01*
Y6282043D01*
X4600000Y6380001D01*
Y6710000D01*
X4700000D01*
Y6480001D01*
X4701881Y6481882D01*
X4700000Y6130047D01*
Y6100000D01*
X4699839D01*
X4698545Y5857958D01*
X5287958D01*
X5310000Y5880000D01*
X6057900D01*
Y7145000D01*
X5940000D01*
X5930000Y7155000D01*
Y7435000D01*
X6240000D01*
Y7145000D01*
D02*
G37*
G36*
X6965552Y11995552D02*
X6960000Y11990000D01*
Y11540000D01*
D01*
X7109999Y11540000D01*
X7110000Y10489411D01*
X6393180Y8581790D01*
Y8361798D01*
X6587905Y8418039D01*
X6637296Y6190000D01*
X6660000D01*
X6690000Y6200000D01*
X7462205D01*
Y6655115D01*
X7449820Y6667500D01*
X7465060Y6682740D01*
X7561580D01*
Y6685280D01*
X7787640D01*
X7790180Y6687820D01*
X7797800Y6680200D01*
Y6586220D01*
X7581900D01*
Y6200000D01*
X7690000D01*
Y6110000D01*
X7700000Y6100000D01*
X6639291D01*
X6681529Y4194599D01*
X6405881Y4240541D01*
X6381332Y8140000D01*
X5660862D01*
X5570000Y7830000D01*
X5300000Y7245000D01*
Y7095000D01*
X5260000D01*
Y6900000D01*
X4350000D01*
Y6600000D01*
X4050000D01*
Y6900000D01*
X4200000D01*
Y7120000D01*
X4750000D01*
Y7245000D01*
Y7810000D01*
X5025594Y7977027D01*
X6325968Y9799319D01*
X6354191D01*
X6446503Y11052760D01*
X6730000Y11384857D01*
Y12010000D01*
X6835000D01*
Y12300000D01*
X6650000D01*
Y12650000D01*
X6835000D01*
Y12675000D01*
X6830000Y12680000D01*
X6965552D01*
Y11995552D01*
D02*
G37*
%LPC*%
G36*
X15186659Y6441440D02*
X15186031Y6440811D01*
X15186659Y6440820D01*
Y6441440D01*
D02*
G37*
%LPD*%
D134*
X3800000Y7730000D02*
Y7900000D01*
X3750000Y7680000D02*
X3800000Y7730000D01*
X3600000Y7630000D02*
X3650000Y7680000D01*
X3750000D01*
X6150000Y7050000D02*
Y7210000D01*
X6120000Y5870000D02*
Y6980000D01*
X6100000Y5890000D02*
X6120000Y5870000D01*
X6140000Y5850000D01*
X6100000Y7000000D02*
X6150000Y7050000D01*
X6100000Y7000000D02*
X6120000Y6980000D01*
X6100000Y7000000D02*
Y7120000D01*
X6050000Y7170000D02*
X6100000Y7120000D01*
X3600000Y7320000D02*
Y7630000D01*
X3514300Y7234300D02*
X3600000Y7320000D01*
X3494300Y7234300D02*
X3514300D01*
X3440000Y7180000D02*
X3494300Y7234300D01*
X6020000Y5850000D02*
X6021260Y5851260D01*
X6885829Y4320000D02*
X6890000D01*
X6881600Y4231600D02*
X6890000Y4240000D01*
X6750000Y4520000D02*
X7180000D01*
X6710000Y4480000D02*
X6750000Y4520000D01*
X6835829Y4270000D02*
X6885829Y4320000D01*
X6750000Y4230000D02*
X6751600Y4231600D01*
X6881600D01*
X6610000Y4480000D02*
X6710000D01*
X6620000Y4280000D02*
X6630000Y4270000D01*
X6600000Y4470000D02*
X6610000Y4480000D01*
X6590000Y4310000D02*
X6620000Y4280000D01*
X6630000Y4270000D02*
X6835829D01*
X6640000Y4230000D02*
X6750000D01*
X6620000Y4250000D02*
Y4280000D01*
Y4250000D02*
X6640000Y4230000D01*
X9575800Y7594200D02*
X9770000Y7400000D01*
X9575800Y7594200D02*
Y7795260D01*
X9354340Y8016720D02*
X9575800Y7795260D01*
X9288300Y8016720D02*
X9354340D01*
X9286240Y8018780D02*
X9288300Y8016720D01*
X8496300Y11432540D02*
X9144000Y10784840D01*
X10530840D01*
X8496300Y11432540D02*
Y11968480D01*
X10668706Y11132114D02*
X10751820Y11049000D01*
X10594340Y11249660D02*
X10668706Y11175294D01*
Y11132114D02*
Y11175294D01*
X9801860Y11264539D02*
X9816739Y11249660D01*
X10594340D01*
X8981440Y11681460D02*
X9723120D01*
X8514080Y12148820D02*
X8981440Y11681460D01*
X8514080Y12148820D02*
Y12242800D01*
X8331200D02*
X8440420Y12352020D01*
X8331200Y12133580D02*
Y12242800D01*
X9801860Y11264539D02*
Y11602720D01*
X9723120Y11681460D02*
X9801860Y11602720D01*
X8331200Y12133580D02*
X8496300Y11968480D01*
X11396980Y7840980D02*
X11498580D01*
X11300460Y7744460D02*
X11396980Y7840980D01*
X11074400Y7744460D02*
X11300460D01*
X10934700Y7790180D02*
X11028680D01*
X11074400Y7744460D01*
X10530840Y7929880D02*
Y8072120D01*
X10429240Y7995920D02*
X10510520Y7914640D01*
X10787380Y7881620D02*
X10878820D01*
X10530840Y7929880D02*
X10553700Y7907020D01*
X10768330Y7862570D02*
X10787380Y7881620D01*
X10817860Y7813040D02*
X10911840D01*
X10934700Y7790180D01*
X10736580Y7807960D02*
X10741660Y7813040D01*
X10817860D01*
X10510520Y7848600D02*
Y7914640D01*
X10912115Y7434580D02*
X11018520D01*
X10870123Y7476572D02*
X10912115Y7434580D01*
X10646492Y7476572D02*
X10870123D01*
X10866420Y7340300D02*
X10942320Y7264400D01*
X10505440Y7523480D02*
X10528300Y7546340D01*
X10513060Y7485380D02*
X10521868Y7476572D01*
X10505440Y7493000D02*
Y7523480D01*
Y7493000D02*
X10513060Y7485380D01*
X10646492Y7476572D02*
X10782764Y7340300D01*
X10513060Y6743700D02*
Y7485380D01*
X10521868Y7476572D02*
X10646492D01*
X10419080Y7584440D02*
X10434320D01*
X10782764Y7340300D02*
X10866420D01*
X10513060Y6743700D02*
X10515600Y6741160D01*
X7970000Y6090000D02*
X8040000D01*
X7950000Y6070000D02*
X7970000Y6090000D01*
X7950000Y5180000D02*
Y6070000D01*
X7880000Y6080000D02*
X7950000Y6150000D01*
X7880000Y5190000D02*
Y6080000D01*
D135*
X4110000Y10580000D02*
X4160000Y10530000D01*
D137*
X9474200Y5052060D02*
Y5372100D01*
X9001760Y4579620D02*
X9474200Y5052060D01*
D144*
X3643000Y10580000D02*
X4110000D01*
D151*
X3643000D02*
D03*
D164*
X15534641Y10721340D02*
D03*
X5140000Y8350000D02*
D03*
X3870000Y7900000D02*
D03*
X6020000Y7360000D02*
D03*
X6150000Y7210000D02*
D03*
X6069788Y5505334D02*
D03*
X4660000Y6670000D02*
D03*
X5729230Y5510378D02*
D03*
X5889789Y5505334D02*
D03*
X5549230Y5510378D02*
D03*
X3220000Y6610000D02*
D03*
X3780000Y6200000D02*
D03*
X16393159Y9674860D02*
D03*
X15994380Y9687560D02*
D03*
X15831821Y9677400D02*
D03*
X12639040Y9204960D02*
D03*
X11249660Y7297420D02*
D03*
X11224260Y7411720D02*
D03*
X6129020Y9641840D02*
D03*
X6631940Y9019540D02*
D03*
X9207500Y7272020D02*
D03*
X7955280Y6883400D02*
D03*
X7607300Y3812540D02*
D03*
X6868160Y6985000D02*
D03*
X6710680Y6962140D02*
D03*
X6339840Y6949440D02*
D03*
X4239260Y6550660D02*
D03*
X7467600Y4480560D02*
D03*
X7470000Y3180000D02*
D03*
X7330000D02*
D03*
X7000000D02*
D03*
X7160000D02*
D03*
X6703060Y12430940D02*
D03*
X8977308Y12314868D02*
D03*
X9032240Y12377420D02*
D03*
X7734300Y6631940D02*
D03*
X6913880Y12349480D02*
D03*
X6890000Y12257500D02*
D03*
X7660000Y6170000D02*
D03*
X7180000Y4520000D02*
D03*
X6970000Y11500000D02*
D03*
X7060000D02*
D03*
X6890000Y4320000D02*
D03*
Y4240000D02*
D03*
X6791960Y12458700D02*
D03*
X6780000Y12610000D02*
D03*
X6779260Y11869420D02*
D03*
X6870000Y11490000D02*
D03*
X6776720Y11762740D02*
D03*
X6781800Y11648440D02*
D03*
X6702805Y12542814D02*
D03*
X6578600Y6029960D02*
D03*
X5270000Y7170000D02*
D03*
X4140000Y6670000D02*
D03*
X9768840Y7404100D02*
D03*
X9098280Y7305040D02*
D03*
X9062720Y11427460D02*
D03*
X11445240Y11191240D02*
D03*
X11356340Y11193780D02*
D03*
X9135780Y11492022D02*
D03*
X10647680Y10995660D02*
D03*
X10586720Y10929620D02*
D03*
X10751820Y11049000D02*
D03*
X15036800Y9316720D02*
D03*
X14917419Y9326880D02*
D03*
X15354300Y7454900D02*
D03*
X8440420Y12352020D02*
D03*
X10530840Y10784840D02*
D03*
X8514080Y12242800D02*
D03*
X11498580Y7840980D02*
D03*
X10878820Y7881620D02*
D03*
X10530840Y8072120D02*
D03*
X10429240Y7995920D02*
D03*
X15356841Y7538720D02*
D03*
X11018520Y7434580D02*
D03*
X10942320Y7264400D02*
D03*
X10515600Y6741160D02*
D03*
X9657080Y2926080D02*
D03*
X9286240Y8018780D02*
D03*
X9179560Y8023860D02*
D03*
X8810000Y6520000D02*
D03*
X8560000D02*
D03*
X9474200Y5372100D02*
D03*
X8670000Y4930000D02*
D03*
X8040000Y6090000D02*
D03*
X7950000Y6150000D02*
D03*
X7870000Y4860000D02*
D03*
X7780000D02*
D03*
X7690000D02*
D03*
X7600000D02*
D03*
X4160000Y10530000D02*
D03*
D165*
X9509570Y11868415D02*
X11123665D01*
X9117837Y12168283D02*
Y12266120D01*
X9032240Y12377420D02*
X9040520Y12369140D01*
X9369607Y12008378D02*
X9509570Y11868415D01*
X9211664Y12008378D02*
X9369607D01*
X9011290Y12306588D02*
X9071113Y12246766D01*
Y12148929D02*
Y12246766D01*
X9528924Y11915140D02*
X11143019D01*
X8985588Y12306588D02*
X9011290D01*
X8977308Y12314868D02*
X8985588Y12306588D01*
X9071113Y12148929D02*
X9211664Y12008378D01*
X9388961Y12055102D02*
X9528924Y11915140D01*
X9040520Y12343437D02*
X9117837Y12266120D01*
Y12168283D02*
X9231018Y12055102D01*
X9388961D01*
X9040520Y12343437D02*
Y12369140D01*
X11445240Y11191240D02*
Y11612919D01*
X11143019Y11915140D02*
X11445240Y11612919D01*
X11356340Y11193780D02*
Y11635740D01*
X11123665Y11868415D02*
X11356340Y11635740D01*
D166*
X9135780Y11492022D02*
X9137464Y11490338D01*
Y11452739D02*
Y11490338D01*
X9577910Y10955506D02*
X9607362D01*
X9594543Y10995660D02*
X10647680D01*
X9137464Y11452739D02*
X9594543Y10995660D01*
X9104822Y11428594D02*
X9577910Y10955506D01*
X9063854Y11428594D02*
X9104822D01*
X9062720Y11427460D02*
X9063854Y11428594D01*
X9633247Y10929620D02*
X10586720D01*
X9607362Y10955506D02*
X9633247Y10929620D01*
%TF.MD5,f24c272cae973a41a73b8e1c4c44775a*%
M02*
