%TF.GenerationSoftware,Altium Limited,Altium Designer,25.8.1 (18)*%
G04 Layer_Physical_Order=8*
G04 Layer_Color=16711680*
%FSLAX45Y45*%
%MOMM*%
%TF.SameCoordinates,C91546C2-10F2-4142-A55A-9FF34A01A7B4*%
%TF.FilePolarity,Positive*%
%TF.FileFunction,Copper,L8,Bot,Signal*%
%TF.Part,Single*%
G01*
G75*
%TA.AperFunction,SMDPad,CuDef*%
%ADD22R,1.60000X1.05000*%
%ADD25R,0.57247X0.61535*%
%ADD27R,1.05000X1.60000*%
%ADD29R,2.20000X1.40000*%
%ADD43R,1.45620X1.25464*%
%TA.AperFunction,Conductor*%
%ADD134C,0.25400*%
%ADD136C,0.20629*%
%ADD137C,0.50000*%
%ADD142C,0.24883*%
%TA.AperFunction,ComponentPad*%
%ADD149C,2.80000*%
%ADD150C,1.45000*%
%ADD151C,0.65000*%
%ADD152O,1.60000X1.00000*%
%ADD153C,2.50000*%
%ADD154C,0.99100*%
%ADD155R,1.20000X1.20000*%
%ADD156C,1.20000*%
%TA.AperFunction,WasherPad*%
%ADD157C,1.52400*%
%TA.AperFunction,ComponentPad*%
%ADD158R,1.45000X1.45000*%
%ADD159C,1.10000*%
%ADD160C,1.60000*%
%ADD161R,2.50000X2.50000*%
%TA.AperFunction,WasherPad*%
%ADD162C,1.10000*%
%ADD163C,1.60000*%
%TA.AperFunction,ViaPad*%
%ADD164C,0.60000*%
%TA.AperFunction,SMDPad,CuDef*%
%ADD169R,1.25464X1.45620*%
%ADD170R,0.30000X0.17500*%
D22*
X4320000Y6960000D02*
D03*
X4780000Y6222500D02*
D03*
X4538131Y6227211D02*
D03*
X4050000Y6230000D02*
D03*
X4780000Y6517500D02*
D03*
X4320000Y6665000D02*
D03*
X4538131Y6522211D02*
D03*
X4050000Y6525000D02*
D03*
D25*
X7097654Y4612640D02*
D03*
Y4526927D02*
D03*
D27*
X3567100Y6382660D02*
D03*
X3862100D02*
D03*
D29*
X5130000Y5910000D02*
D03*
X4710000Y6890000D02*
D03*
D43*
X7324487Y4752109D02*
D03*
Y4586953D02*
D03*
D134*
X6474820Y8806540D02*
G03*
X6431532Y8567168I185111J-157076D01*
G01*
X6956879Y8854617D02*
G03*
X6956880Y8854616I17961J17960D01*
G01*
X7324487Y4752109D02*
Y4915513D01*
X7210000Y5030000D02*
X7324487Y4915513D01*
X7097654Y4612640D02*
Y4614784D01*
X6974840Y4704080D02*
X7008357D01*
X6951980Y4726940D02*
X6974840Y4704080D01*
X7008357D02*
X7097654Y4614784D01*
X4320000Y6960000D02*
Y7080000D01*
X4230000Y7170000D02*
X4320000Y7080000D01*
X4872372Y5910000D02*
X5130000D01*
X4780000Y6002372D02*
X4820000Y5962372D01*
X4780000Y6012842D02*
X4785236Y6007607D01*
X4780000Y6012842D02*
Y6222500D01*
Y6002372D02*
Y6012842D01*
X4832372Y5950000D02*
X4872372Y5910000D01*
X4820000Y5950000D02*
X4832372D01*
X4820000D02*
Y5962372D01*
X6718300Y4726940D02*
X6951980D01*
X6718300Y4475372D02*
Y4726940D01*
Y4475372D02*
X6730742Y4462930D01*
X5920000Y4460000D02*
X5925000Y4455000D01*
X5530000Y4460000D02*
X5532000Y4458000D01*
X5925000Y4195000D02*
X5930000Y4190000D01*
X5532000Y4192000D02*
X5534000Y4190000D01*
X4077500Y6230000D02*
X4318442Y6470942D01*
X4538131Y6227211D02*
X4565631D01*
X4780000Y6012842D01*
X3567100Y6252900D02*
Y6382660D01*
X4050000Y6230000D02*
X4077500D01*
X3567100Y6252900D02*
X3620000Y6200000D01*
X6540500Y12486640D02*
X6733265D01*
X6766585Y12519960D01*
X5570220Y11516360D02*
X6540500Y12486640D01*
X6553200Y11793200D02*
X6931240Y12171240D01*
X7270375D02*
X7306340Y12207205D01*
X6931240Y12171240D02*
X7270375D01*
X7274455Y4536921D02*
X7324487Y4586953D01*
X7209293Y4536921D02*
X7274455D01*
X7192372Y4520000D02*
X7209293Y4536921D01*
X7176536Y4523464D02*
X7180000Y4520000D01*
X7192372D01*
X7097654Y4526927D02*
X7101117Y4523464D01*
X7176536D01*
X7122930Y4462930D02*
X7180000Y4520000D01*
X6895898Y4462930D02*
X7122930D01*
X4690000Y6910000D02*
X4710000Y6890000D01*
X4542842Y6517500D02*
X4780000D01*
X4460000Y6910000D02*
X4690000D01*
X4344374Y6794374D02*
X4460000Y6910000D01*
X4264374Y6794374D02*
X4344374D01*
X4140000Y6670000D02*
X4264374Y6794374D01*
X4140000Y6670000D02*
Y6670600D01*
X4320000Y6665000D02*
X4347500D01*
X4450489Y6562011D01*
X4140000Y6670000D02*
X4315000D01*
X4320000Y6665000D01*
X4538131Y6522211D02*
X4542842Y6517500D01*
X4450489Y6562011D02*
X4498331D01*
X4538131Y6522211D01*
X4131252Y6661252D02*
X4140000Y6670000D01*
X4113192Y6661252D02*
X4131252D01*
X3862100Y6410160D02*
X4113192Y6661252D01*
X3862100Y6382660D02*
Y6410160D01*
X9801829Y9344660D02*
X9936205D01*
X9116421Y10030067D02*
Y10033753D01*
X8171180Y10978994D02*
X9116421Y10033753D01*
X8171180Y10978994D02*
Y11092180D01*
X9116421Y10030067D02*
X9801829Y9344660D01*
X9260660Y10002700D02*
X9700260Y9563100D01*
X8392160Y10911871D02*
Y11788140D01*
Y10911871D02*
X9260660Y10043372D01*
Y10002700D02*
Y10043372D01*
X10170160Y11071860D02*
X10258880Y10983140D01*
Y9715680D02*
Y10983140D01*
Y9715680D02*
X10505440Y9469120D01*
X9131300Y9166860D02*
X10342880D01*
X8902700Y9395460D02*
X9131300Y9166860D01*
X9226373Y9292767D02*
X10309732D01*
X10336226Y9319260D01*
X9154160Y9237980D02*
X10390960D01*
X9031504Y9487636D02*
X9226373Y9292767D01*
X10336226Y9319260D02*
X10416540D01*
X10390960Y9237980D02*
X10391874Y9237067D01*
X13027660Y8866299D02*
Y8869680D01*
Y8866299D02*
X13059839Y8834120D01*
X13200742D02*
X13215620Y8848999D01*
Y9121140D01*
X13059839Y8834120D02*
X13200742D01*
X13141960Y8912860D02*
Y9128760D01*
X12346940Y8755380D02*
X12390120Y8798560D01*
X12404333D01*
X12483073Y8877300D02*
X12488780D01*
X12468860Y8780780D02*
X12555220Y8694420D01*
X12404333Y8798560D02*
X12483073Y8877300D01*
X6435661Y8563039D02*
X6528938Y8469762D01*
X6431532Y8567168D02*
X6435661Y8563039D01*
X6474820Y8806540D02*
X6553200Y8884920D01*
X6775365Y8827855D02*
X6829921Y8773299D01*
Y8613741D02*
Y8773299D01*
X6775365Y8827855D02*
Y8851849D01*
X6723380Y8903834D02*
Y11163661D01*
Y8903834D02*
X6775365Y8851849D01*
X6553200Y8884920D02*
Y11793200D01*
X5980000Y7590000D02*
X6528938Y8138938D01*
Y8469762D01*
X6723380Y8214720D02*
Y8430259D01*
X6829921Y8536800D02*
Y8613741D01*
X6775444Y8482323D02*
X6775516Y8482395D01*
X6775443Y8482323D02*
X6775444D01*
X6723380Y8430259D02*
X6775443Y8482323D01*
X6775516Y8482395D02*
X6829921Y8536800D01*
X6723380Y8204200D02*
X6723380Y8214720D01*
X6723380Y8204200D02*
X7632700Y7294880D01*
X8069611D01*
X6949440Y8862056D02*
Y11046821D01*
X6958197Y8853299D02*
X6997699Y8823961D01*
X6999019Y8822641D01*
X6956880Y8854615D02*
X6958197Y8853299D01*
X6949440Y8862056D02*
X6956878Y8854617D01*
X6999019Y8822641D02*
X8846820Y6974840D01*
X6964319Y11061700D02*
X7607300D01*
X6949440Y11046821D02*
X6964319Y11061700D01*
X8846820Y6974840D02*
X8877300D01*
X7020560Y8917940D02*
X8884920Y7053580D01*
X8945880D01*
X7020560Y8917940D02*
Y10622280D01*
X6723380Y11163661D02*
X6738259Y11178540D01*
X8862060Y11534140D02*
X9535160Y10861040D01*
X8756463Y11534140D02*
X8862060D01*
X9535160Y10861040D02*
X10076180D01*
X9819640Y11495416D02*
X10317480Y10997576D01*
X9819640Y11495416D02*
Y11666220D01*
X9756140Y11483340D02*
Y11653520D01*
Y11483340D02*
X10167620Y11071860D01*
X10170160D01*
X10317480Y9733280D02*
Y10997576D01*
X8666502Y11384280D02*
X8713496Y11431275D01*
X8779505D01*
X8656320Y11384280D02*
X8666502D01*
X8715823Y11493500D02*
X8756463Y11534140D01*
X8630920Y11493500D02*
X8715823D01*
X8564880Y11584940D02*
X8910320Y11930380D01*
X8564880Y11159796D02*
X9479420Y10245256D01*
X8564880Y11159796D02*
Y11584940D01*
X8779505Y11431275D02*
X9748520Y10462260D01*
X9893661D01*
X9908540Y10447381D01*
Y9751060D02*
Y10447381D01*
Y9751060D02*
X9961880Y9697720D01*
X8392160Y11788140D02*
X8572500Y11968480D01*
X8839200D01*
X9479420Y10147948D02*
Y10245256D01*
Y10147948D02*
X9535160Y10092208D01*
Y9994900D02*
Y10092208D01*
X8625840Y5791200D02*
Y6259350D01*
X8442660Y6442530D02*
X8625840Y6259350D01*
X7995920Y9847580D02*
X8448040Y9395460D01*
X8902700D01*
X9535160Y9994900D02*
X9874392Y9655668D01*
Y9592168D02*
X9883140Y9583420D01*
X9874392Y9592168D02*
Y9655668D01*
X9961880Y9405620D02*
Y9697720D01*
X11013440Y8214360D02*
X11079480Y8280400D01*
Y8612865D01*
X8509000Y9438640D02*
X8953500D01*
X9154160Y9237980D01*
X10363200Y9400540D02*
Y9489440D01*
X10302240Y9339580D02*
X10363200Y9400540D01*
X9941285Y9339580D02*
X10302240D01*
X9936205Y9344660D02*
X9941285Y9339580D01*
X8691566Y12191700D02*
X8704880D01*
X8655680Y12227585D02*
X8691566Y12191700D01*
X8704880D02*
X8884920Y12011660D01*
X9398000D02*
X9756140Y11653520D01*
X8884920Y12011660D02*
X9398000D01*
X8716940Y12248220D02*
X8907780Y12057380D01*
X9428480D01*
X9819640Y11666220D01*
X8655680Y12227585D02*
Y12310534D01*
X8660302Y12315155D01*
X8716940Y12248220D02*
Y12252960D01*
X6997624Y12519960D02*
X7025864Y12491720D01*
X7696200D01*
X6766585Y12519960D02*
X6997624D01*
X7696200Y12491720D02*
X7899400Y12288520D01*
X5570220Y11153140D02*
Y11516360D01*
X7899400Y11877040D02*
Y12288520D01*
X12666100Y9397360D02*
X12749509D01*
X12752009Y9394860D01*
X12666100Y9357360D02*
X12735203D01*
X12752009Y9394860D02*
X12941901D01*
X13215620Y9121140D01*
X12735203Y9357360D02*
X12736103Y9356460D01*
X12914259D01*
X13141960Y9128760D01*
X8168640Y11094720D02*
X8171180Y11092180D01*
X7807960Y11480525D02*
Y11490960D01*
Y11480525D02*
X8054340Y11234145D01*
Y10813235D02*
Y11234145D01*
X7907020Y10708640D02*
X8145780Y10469880D01*
X7907020Y10708640D02*
Y10784840D01*
X7830520Y10640360D02*
Y10871175D01*
X7889659Y10930313D02*
X7915333D01*
X7830520Y10640360D02*
X7995920Y10474960D01*
X7915333Y10930313D02*
X7983220Y10998200D01*
X7830520Y10871175D02*
X7889659Y10930313D01*
X8054340Y10813235D02*
X8118083Y10749492D01*
Y10677917D02*
Y10749492D01*
Y10677917D02*
X8319248Y10476752D01*
X7995920Y9847580D02*
Y10474960D01*
X8145780Y9801860D02*
Y10469880D01*
X8319248Y9778252D02*
Y10476752D01*
X8145780Y9801860D02*
X8509000Y9438640D01*
X8319248Y9778252D02*
X8609864Y9487636D01*
X9031504D01*
X11070900Y8931600D02*
X11350160D01*
X10952480Y9050020D02*
X11070900Y8931600D01*
X11194504Y9061996D02*
X11244900Y9011600D01*
X11135360Y9133840D02*
X11194504Y9074696D01*
Y9061996D02*
Y9074696D01*
X11244900Y9011600D02*
X11350160D01*
X11165520Y8971600D02*
X11350160D01*
X11014660Y9122460D02*
X11165520Y8971600D01*
X11115040Y9255760D02*
X11147650D01*
X11350160Y9053250D01*
Y9051600D02*
Y9053250D01*
X11405160Y8971600D02*
X11508420D01*
X11724640Y8755380D01*
X12346940D01*
X11406760Y9013200D02*
X11441440D01*
X11762740Y9062720D02*
X11889740Y8935720D01*
X11490960Y9062720D02*
X11762740D01*
X11441440Y9013200D02*
X11490960Y9062720D01*
X12293600Y8808709D02*
X12336545Y8851653D01*
X12247880Y8806180D02*
X12293600D01*
X12118340Y8935720D02*
X12247880Y8806180D01*
X12336545Y8851653D02*
Y8851654D01*
X12293600Y8806180D02*
Y8808709D01*
X12555220Y8658860D02*
Y8694420D01*
X12512040Y8615680D02*
X12555220Y8658860D01*
X11696339Y8615680D02*
X12512040D01*
X11681460Y8630559D02*
X11696339Y8615680D01*
X11681460Y8630559D02*
Y8653650D01*
X11405160Y8929950D02*
X11681460Y8653650D01*
X11405160Y8929950D02*
Y8931600D01*
X12311380Y8929050D02*
Y9009380D01*
X12305570Y8923240D02*
X12311380Y8929050D01*
X12252960Y9067800D02*
X12311380Y9009380D01*
X11405160Y9011600D02*
X11406760Y9013200D01*
X11889740Y8935720D02*
X12118340D01*
X11405160Y9051600D02*
X11469620Y9116060D01*
X11536680D01*
X11628120Y9207500D01*
X12108180Y9067800D02*
X12252960D01*
X11628120Y9207500D02*
X11968480D01*
X12108180Y9067800D01*
X12364720Y9258300D02*
X12552040D01*
X12400280Y9507220D02*
X12541240D01*
X12607150Y9441310D01*
X12692716Y9517380D02*
X12707595Y9502501D01*
Y9455759D02*
Y9502501D01*
X12644120Y9517380D02*
X12692716D01*
Y9440880D02*
X12707595Y9455759D01*
X12668400Y9440880D02*
X12692716D01*
X12666100Y9437360D02*
Y9438580D01*
X12668400Y9440880D01*
X12611100Y9315710D02*
Y9317360D01*
X12608800Y9313410D02*
X12611100Y9315710D01*
X12552040Y9258300D02*
X12607150Y9313410D01*
X12608800D01*
Y9441310D02*
X12611100Y9439010D01*
X12607150Y9441310D02*
X12608800D01*
X12611100Y9437360D02*
Y9439010D01*
X12609500Y9355760D02*
X12611100Y9357360D01*
X12595194Y9355760D02*
X12609500D01*
X12438380Y9354820D02*
X12594254D01*
X12595194Y9355760D01*
X12666100Y9315710D02*
Y9317360D01*
Y9315710D02*
X12727940Y9253870D01*
Y8851900D02*
Y9253870D01*
X12230100Y9415780D02*
X12230400Y9416080D01*
X12463755D01*
X12482475Y9397360D02*
X12611100D01*
X12463755Y9416080D02*
X12482475Y9397360D01*
X7377205Y12207205D02*
X7380000Y12210000D01*
X7306340Y12207205D02*
X7377205D01*
X10505440Y9186905D02*
Y9469120D01*
Y9186905D02*
X11079480Y8612865D01*
X9555480Y6154256D02*
Y6624320D01*
X9392920Y6786880D02*
X9555480Y6624320D01*
X9530080Y6128856D02*
X9555480Y6154256D01*
X9530080Y5646420D02*
Y6128856D01*
X9065260Y6786880D02*
X9392920D01*
X7660640Y11115040D02*
Y11369040D01*
X8877300Y6974840D02*
X9065260Y6786880D01*
X7607300Y11061700D02*
X7660640Y11115040D01*
X9674860Y6174576D02*
Y6637020D01*
X9646920Y6146636D02*
X9674860Y6174576D01*
X9646920Y5671820D02*
Y6146636D01*
X9126220Y6873240D02*
X9438640D01*
X8945880Y7053580D02*
X9126220Y6873240D01*
X9438640D02*
X9674860Y6637020D01*
X7020560Y10622280D02*
X7343140Y10944860D01*
X8069611Y7294880D02*
X8447860Y6916632D01*
Y6741254D02*
Y6916632D01*
X8442660Y6736055D02*
X8447860Y6741254D01*
X8442660Y6442530D02*
Y6736055D01*
X6738259Y11178540D02*
X6984983D01*
X7007843Y11155680D02*
X7266940D01*
X6984983Y11178540D02*
X7007843Y11155680D01*
X10822940Y9055100D02*
Y9436461D01*
Y9055100D02*
X11121260Y8756780D01*
Y8662800D02*
Y8756780D01*
X11316000Y8280100D02*
Y8468060D01*
X11121260Y8662800D02*
X11316000Y8468060D01*
Y8280100D02*
X11384280Y8211820D01*
X10634980Y9451340D02*
X10808061D01*
X10822940Y9436461D01*
X10317480Y9733280D02*
X10561320Y9489440D01*
X10596880D02*
X10634980Y9451340D01*
X10561320Y9489440D02*
X10596880D01*
X11138608Y7600272D02*
X11369040Y7369840D01*
Y3441920D02*
Y7369840D01*
X11076940Y7675880D02*
X11138608Y7614212D01*
Y7600272D02*
Y7614212D01*
X11259820Y7599680D02*
X11261973Y7601833D01*
Y7641778D01*
X11269550Y7649355D01*
X11554460Y6977380D02*
X11889740Y6642100D01*
X11278540Y3351420D02*
X11369040Y3441920D01*
X10982960Y7627620D02*
X11150600Y7459980D01*
X11554460Y6977380D02*
Y7279640D01*
X12006580Y6695440D02*
X12089740Y6612280D01*
X11150600Y5565140D02*
Y7459980D01*
X11889740Y3433640D02*
X11889740Y6642100D01*
X11125840Y5540380D02*
X11150600Y5565140D01*
X11694160Y6995160D02*
X11993880Y6695440D01*
X11799900Y3343800D02*
X11889740Y3433640D01*
X11694160Y6995160D02*
Y7236460D01*
X11993880Y6695440D02*
X12006580D01*
X11259820Y7574280D02*
X11554460Y7279640D01*
X11351260Y7579360D02*
X11694160Y7236460D01*
X11078540Y3351420D02*
X11125840Y3398720D01*
Y5540380D01*
X10982960Y7627620D02*
Y7719060D01*
X11259820Y7574280D02*
Y7599680D01*
X11999900Y3343800D02*
X12089740Y3433640D01*
X12089740Y6612280D01*
X11351260Y7579360D02*
Y7650480D01*
X4343000Y4193000D02*
X4346000Y4190000D01*
X4741000Y4191000D02*
X4742000Y4190000D01*
D136*
X17213666Y11963979D02*
Y12019366D01*
X17195799Y11946114D02*
X17213666Y11963979D01*
X17195799Y11935460D02*
Y11946114D01*
X11671300Y12463300D02*
X11702020Y12494020D01*
X16739011D01*
X11671300Y12446210D02*
X11675340Y12442170D01*
X11671300Y12446210D02*
Y12463300D01*
X11675340Y12317960D02*
Y12442170D01*
X16739011Y12494020D02*
X17213666Y12019366D01*
X11671300Y12313920D02*
X11675340Y12317960D01*
X11620671Y12484271D02*
X11681049Y12544649D01*
X16759982D02*
X17264294Y12040337D01*
X17282159Y11938014D02*
Y11948668D01*
X17264294Y11966533D02*
Y12040337D01*
Y11966533D02*
X17282159Y11948668D01*
X11681049Y12544649D02*
X16759982D01*
X11617960Y12372340D02*
X11624711Y12379091D01*
X11620671Y12425239D02*
X11624711Y12421199D01*
Y12379091D02*
Y12421199D01*
X11620671Y12425239D02*
Y12484271D01*
D137*
X5925000Y4195000D02*
Y4455000D01*
X5532000Y4192000D02*
Y4458000D01*
X4030000Y5500000D02*
X4740000Y4790000D01*
Y4470000D02*
Y4790000D01*
X3950000Y5350000D02*
Y5790000D01*
X4340000Y4470000D02*
Y4960000D01*
X3950000Y5350000D02*
X4340000Y4960000D01*
Y4470000D02*
X4740000D01*
X4343000Y4193000D02*
Y4467000D01*
X4741000Y4191000D02*
Y4469000D01*
D142*
X9215286Y12299165D02*
X9306077Y12208374D01*
X9145243Y12291591D02*
Y12345159D01*
Y12291591D02*
X9283343Y12153491D01*
X12074548Y10452625D02*
Y10527495D01*
X12191839Y10460781D02*
X12218853Y10487796D01*
X12144008Y10460781D02*
X12191839D01*
X9210894Y12366489D02*
X9215286Y12362097D01*
X9138524Y12351878D02*
X9145243Y12345159D01*
X9215286Y12299165D02*
Y12362097D01*
X12218853Y10487796D02*
X12228356D01*
X12221928Y10405898D02*
X12228447Y10412417D01*
X12121274Y10405898D02*
X12221928D01*
X16023749Y8728212D02*
X16045837Y8750300D01*
X10821505Y12028335D02*
Y12228445D01*
X10848340Y12255281D02*
Y12260580D01*
X15275809Y8722360D02*
X15281660Y8728212D01*
X14560823Y8722360D02*
X15275809D01*
X15281660Y8728212D02*
X16023749D01*
X16045837Y8750300D02*
X16055341D01*
X10766622Y12005602D02*
X11153267Y11618957D01*
X16038217Y8651240D02*
X16047720D01*
X10766622Y12267762D02*
X10845800Y12346940D01*
X14538091Y8667477D02*
X15298543D01*
X15304395Y8673329D02*
X16016129D01*
X10821505Y12028335D02*
X11176000Y11673840D01*
X14361160Y8844407D02*
X14538091Y8667477D01*
X15298543D02*
X15304395Y8673329D01*
X11153267Y11618957D02*
X11785600D01*
X10821505Y12228445D02*
X10848340Y12255281D01*
X16016129Y8673329D02*
X16038217Y8651240D01*
X10766622Y12005602D02*
Y12267762D01*
X14361160Y8844407D02*
Y9784080D01*
X13639799Y10505440D02*
X14361160Y9784080D01*
X11785600Y11618957D02*
X12899117Y10505440D01*
X13639799D01*
X13662534Y10560323D02*
X14416043Y9806813D01*
X12921851Y10560323D02*
X13662534D01*
X14416043Y8867140D02*
Y9806813D01*
Y8867140D02*
X14560823Y8722360D01*
X11176000Y11673840D02*
X11808333D01*
X12921851Y10560323D01*
X10655735Y11326422D02*
X10722337Y11259820D01*
X10777220Y11247120D02*
Y11282553D01*
X11117707Y10829017D02*
X11773027D01*
X10722337Y11224387D02*
X11117707Y10829017D01*
X10777220Y11247120D02*
X11140440Y10883900D01*
X10722337Y11224387D02*
Y11259820D01*
X11140440Y10883900D02*
X11795760D01*
X10710618Y11349155D02*
X10777220Y11282553D01*
X10655735Y11326422D02*
Y11768484D01*
X9283343Y12153491D02*
X9769249D01*
X11795760Y10883900D02*
X12129431Y10550229D01*
Y10475358D02*
X12144008Y10460781D01*
X12129431Y10475358D02*
Y10550229D01*
X10710618Y11349155D02*
Y11791217D01*
X9791982Y12208374D02*
X10162413Y11837943D01*
X9306077Y12208374D02*
X9791982D01*
X10663892Y11837943D02*
X10710618Y11791217D01*
X10162413Y11837943D02*
X10663892D01*
X12074548Y10452625D02*
X12121274Y10405898D01*
X11773027Y10829017D02*
X12074548Y10527495D01*
X10641159Y11783060D02*
X10655735Y11768484D01*
X10139680Y11783060D02*
X10641159D01*
X9769249Y12153491D02*
X10139680Y11783060D01*
D149*
X16756599Y9357000D02*
D03*
Y8043000D02*
D03*
D150*
X16485600Y9050000D02*
D03*
Y8800000D02*
D03*
Y8600000D02*
D03*
D151*
X3643000Y10980000D02*
D03*
Y10500000D02*
D03*
Y10900000D02*
D03*
Y10420000D02*
D03*
Y10740000D02*
D03*
Y10660000D02*
D03*
X3573000Y10780000D02*
D03*
Y10620000D02*
D03*
Y10860000D02*
D03*
Y10940000D02*
D03*
Y10460000D02*
D03*
Y10540000D02*
D03*
X3643000Y10580000D02*
D03*
Y10820000D02*
D03*
D152*
X3528000Y11127000D02*
D03*
Y10273000D02*
D03*
X3055000Y11127000D02*
D03*
Y10273000D02*
D03*
D153*
X5920000Y4170000D02*
D03*
X5524000D02*
D03*
X4336000D02*
D03*
X4732000D02*
D03*
X5128000D02*
D03*
D154*
X5049915Y12524212D02*
D03*
X5252915D02*
D03*
X5151415Y11762212D02*
D03*
D155*
X11078540Y3351420D02*
D03*
X11799900Y3343800D02*
D03*
D156*
X11278540Y3351420D02*
D03*
X11999900Y3343800D02*
D03*
D157*
X6631940Y8661400D02*
D03*
X12992101Y8620760D02*
D03*
X5880000Y12320000D02*
D03*
X3130000Y3070000D02*
D03*
X17060001Y6600000D02*
D03*
D158*
X16485600Y8350000D02*
D03*
D159*
X8650257Y9269600D02*
D03*
X12070759Y9275910D02*
D03*
D160*
X10650257Y9269600D02*
D03*
X14070760Y9275910D02*
D03*
D161*
X3940000Y4170000D02*
D03*
D162*
X6747500Y12110000D02*
D03*
D163*
X13627499D02*
D03*
D164*
X15534641Y10721340D02*
D03*
X15565120Y10482580D02*
D03*
X15460980Y10457180D02*
D03*
X12070080Y12263120D02*
D03*
X17368520Y11689080D02*
D03*
X17604739Y11318240D02*
D03*
X17612360Y11216640D02*
D03*
X17325340Y11323320D02*
D03*
X16984979Y11318240D02*
D03*
X17325340Y11229340D02*
D03*
X14038580Y9047480D02*
D03*
X14033501Y8935720D02*
D03*
X12171680Y9151620D02*
D03*
X11938000Y9080500D02*
D03*
X11998960Y9027160D02*
D03*
X14033501Y8829040D02*
D03*
X13949680Y8823960D02*
D03*
X12298680Y8430260D02*
D03*
X11254740Y8440420D02*
D03*
X11463020Y8432800D02*
D03*
X15707359Y7437120D02*
D03*
X15892780Y7294880D02*
D03*
X10528300Y8884920D02*
D03*
X10378440Y8902700D02*
D03*
X10452100Y8844280D02*
D03*
X9230360Y8910320D02*
D03*
X9131300Y8897620D02*
D03*
X9034780Y8900160D02*
D03*
X8956040Y8854440D02*
D03*
X10815320Y8542020D02*
D03*
X10673080D02*
D03*
X9672320Y8437880D02*
D03*
X8950960Y9212580D02*
D03*
X8875257Y9167119D02*
D03*
X8656320Y9055100D02*
D03*
X8623300Y8973820D02*
D03*
X8890000Y8745220D02*
D03*
X8770620Y8874760D02*
D03*
X8684260Y8892540D02*
D03*
X5140000Y8350000D02*
D03*
X6300000Y7700000D02*
D03*
X3870000Y7900000D02*
D03*
X6020000Y7360000D02*
D03*
X6150000Y7210000D02*
D03*
X6069788Y5505334D02*
D03*
X4660000Y6670000D02*
D03*
X5729230Y5510378D02*
D03*
X5889789Y5505334D02*
D03*
X5549230Y5510378D02*
D03*
X3220000Y6610000D02*
D03*
X3780000Y6200000D02*
D03*
X17195799Y11935460D02*
D03*
X11671300Y12313920D02*
D03*
X11991340Y12202160D02*
D03*
X17365981Y11584940D02*
D03*
X16393159Y9674860D02*
D03*
X15994380Y9687560D02*
D03*
X15831821Y9677400D02*
D03*
X16327119Y11026140D02*
D03*
X16174220Y10716852D02*
D03*
X16322040Y10800080D02*
D03*
X15320454Y10808056D02*
D03*
X15382240Y10665460D02*
D03*
X17602200Y12288520D02*
D03*
X17498061Y12369800D02*
D03*
X17635220Y12141200D02*
D03*
X17383760Y12517120D02*
D03*
X17048480Y12512040D02*
D03*
X17211040Y12382500D02*
D03*
X17388840Y12291060D02*
D03*
X17637241Y11994400D02*
D03*
X17632680Y11844020D02*
D03*
Y11696700D02*
D03*
X17711420Y11422380D02*
D03*
X17632680Y11546840D02*
D03*
X17621519Y11050000D02*
D03*
X17354649Y11098630D02*
D03*
X13578841Y12306300D02*
D03*
X13439140D02*
D03*
X13304520Y12316460D02*
D03*
X13131799Y12303760D02*
D03*
X13017500Y12296140D02*
D03*
X12870180Y12291060D02*
D03*
X13449300Y11884660D02*
D03*
X13296899Y11882120D02*
D03*
X13147040Y11879580D02*
D03*
X13007339Y11871960D02*
D03*
X12872720Y11869420D02*
D03*
X12745720Y11866880D02*
D03*
X17609821Y10949940D02*
D03*
X17607280Y10843260D02*
D03*
X17383760Y10820400D02*
D03*
X17355820Y10995660D02*
D03*
X17607280Y10706100D02*
D03*
X17630141Y10330180D02*
D03*
X17619980Y10157460D02*
D03*
X17503140Y10078720D02*
D03*
X17388840Y10708640D02*
D03*
X17383760Y10276840D02*
D03*
X17051019Y10317480D02*
D03*
X17373599Y10160000D02*
D03*
X16583659Y10680700D02*
D03*
X16504919Y10134600D02*
D03*
X15548640Y10197260D02*
D03*
Y10092260D02*
D03*
X15471140D02*
D03*
Y10197260D02*
D03*
Y10272260D02*
D03*
X15393640Y10092260D02*
D03*
Y10197260D02*
D03*
X15471140Y10017260D02*
D03*
X13990320Y10012680D02*
D03*
X13423900Y10022840D02*
D03*
X13698219Y10015220D02*
D03*
X12542520Y12296140D02*
D03*
X12283440Y12278360D02*
D03*
X12184380Y12288520D02*
D03*
X10927080Y12316460D02*
D03*
X11341100Y12303760D02*
D03*
X9890760Y12593320D02*
D03*
X10727992Y12369800D02*
D03*
X10403840Y12357100D02*
D03*
X9794240Y12491720D02*
D03*
X9888220Y12484100D02*
D03*
X12600940Y12194540D02*
D03*
X12456160Y12240260D02*
D03*
X11920220Y12085320D02*
D03*
X12458700Y11925300D02*
D03*
X11559540Y12197080D02*
D03*
X11717020Y12169140D02*
D03*
X12603480Y11864340D02*
D03*
X12148820Y11871960D02*
D03*
X11993880D02*
D03*
X12247880D02*
D03*
X11844020D02*
D03*
X11697080Y11879200D02*
D03*
X11577320Y11877040D02*
D03*
X10586720Y12161520D02*
D03*
X10170160Y12214860D02*
D03*
X10139680Y11978640D02*
D03*
X11394680Y11856480D02*
D03*
X9886710Y11774800D02*
D03*
X9786620Y11786570D02*
D03*
X9420577Y11902448D02*
D03*
X10840720Y11551920D02*
D03*
X10345420Y11414760D02*
D03*
X10548620Y10060940D02*
D03*
X17371060Y9939020D02*
D03*
X17061180Y9936480D02*
D03*
X17330420Y9575800D02*
D03*
X17218660Y9817100D02*
D03*
X16814799Y9575800D02*
D03*
X16675101D02*
D03*
X16954500Y9497060D02*
D03*
X16957040Y9359900D02*
D03*
X16924020Y9202420D02*
D03*
X16560800Y9476740D02*
D03*
X16517619Y9347200D02*
D03*
X14696440Y9690100D02*
D03*
X12298680Y9644380D02*
D03*
X15389861Y9530080D02*
D03*
X13845760Y9583639D02*
D03*
X14620239Y9354820D02*
D03*
X13873480Y9210040D02*
D03*
X14528799Y9182100D02*
D03*
X13245760Y9591381D02*
D03*
X12962579Y9602780D02*
D03*
X13104890Y9579851D02*
D03*
X13545760Y9575861D02*
D03*
X12639040Y9204960D02*
D03*
X16903700Y8188960D02*
D03*
X16789400Y9146540D02*
D03*
X16736060Y8237220D02*
D03*
X16583659Y9169728D02*
D03*
X16644620Y9047480D02*
D03*
X16593820Y8183880D02*
D03*
X16967200Y8039100D02*
D03*
X16540480Y8041640D02*
D03*
X16596359Y7891780D02*
D03*
X16918941Y7881620D02*
D03*
X16758920Y7835900D02*
D03*
X16705580Y6743700D02*
D03*
X16367760Y9166860D02*
D03*
X16316960Y9047480D02*
D03*
X16273779Y8689340D02*
D03*
X15811501Y7810500D02*
D03*
X14505940Y8536940D02*
D03*
X15450819Y8270240D02*
D03*
X13837920Y8742680D02*
D03*
X13835381Y8900160D02*
D03*
X14269720Y8679180D02*
D03*
X13837920Y8521700D02*
D03*
X13233400Y8547100D02*
D03*
X12600940Y8539480D02*
D03*
X16064999Y7680000D02*
D03*
X16020000Y7620000D02*
D03*
X15975000Y7560000D02*
D03*
Y7680000D02*
D03*
X16474440Y7208520D02*
D03*
X16064999Y7560000D02*
D03*
X16405859Y4381500D02*
D03*
X15506700Y7277100D02*
D03*
X15483839Y6494780D02*
D03*
X13710921Y6471920D02*
D03*
X12854939Y6113780D02*
D03*
X12834621Y4386580D02*
D03*
X12054840Y9956800D02*
D03*
X11958320Y9276080D02*
D03*
X10764520Y9961880D02*
D03*
X11526520Y9293860D02*
D03*
X11811000Y9131300D02*
D03*
X11765280Y8907780D02*
D03*
X10929620Y8554720D02*
D03*
X10584180Y9964420D02*
D03*
X10629900Y8956040D02*
D03*
X11193780Y8055120D02*
D03*
X11083780Y7945120D02*
D03*
X11303780D02*
D03*
X11193780D02*
D03*
X10906760Y7975600D02*
D03*
X10815320Y8161020D02*
D03*
X10667700Y7980680D02*
D03*
X9741061Y9646920D02*
D03*
X10086340Y9547860D02*
D03*
X9448800Y9509760D02*
D03*
X10246360Y8186420D02*
D03*
X10307320Y7988300D02*
D03*
X10102880Y8574978D02*
D03*
X9377680Y8529320D02*
D03*
X9662160Y8148320D02*
D03*
X11772900Y7919720D02*
D03*
X11193780Y7835120D02*
D03*
X11194308Y7623344D02*
D03*
X10876280Y7721600D02*
D03*
X11671300Y7457440D02*
D03*
X11600180Y6083300D02*
D03*
X11249660Y7297420D02*
D03*
X11224260Y7411720D02*
D03*
X10858500Y7401560D02*
D03*
X10711180Y5943600D02*
D03*
X9890760Y7889240D02*
D03*
X10297160Y6863080D02*
D03*
X10020300Y6858000D02*
D03*
X9390000Y7510000D02*
D03*
X9770000Y7310000D02*
D03*
X9966960Y5638800D02*
D03*
X9926320Y2771140D02*
D03*
X9761220Y5402580D02*
D03*
X9784080Y2918460D02*
D03*
X9370480Y12382360D02*
D03*
X8219440Y12387580D02*
D03*
X7680960D02*
D03*
X9311640Y12313920D02*
D03*
X9255760Y11945620D02*
D03*
X9156700Y12184380D02*
D03*
X9123680Y11948160D02*
D03*
X8981740Y12166600D02*
D03*
X8272780Y12311380D02*
D03*
X8996680Y11948160D02*
D03*
X8280400Y11849100D02*
D03*
X7302500Y12350000D02*
D03*
X7569200Y12329160D02*
D03*
X6591300Y12580620D02*
D03*
X6593840Y12412980D02*
D03*
X7294880Y11899900D02*
D03*
X7256780Y12278360D02*
D03*
X7160260Y12260580D02*
D03*
X7195820Y11907520D02*
D03*
X7373620Y11841480D02*
D03*
X7105000Y11885000D02*
D03*
X7068820Y12288520D02*
D03*
X6786880Y12247880D02*
D03*
X7025640Y11841480D02*
D03*
X8432800Y9923780D02*
D03*
X9253220Y9591040D02*
D03*
X9161415Y9586162D02*
D03*
X9364980Y9558020D02*
D03*
X9222740Y8768080D02*
D03*
X9006840Y9598660D02*
D03*
X8897620Y9596120D02*
D03*
X8854440Y9309100D02*
D03*
X9329420Y8140700D02*
D03*
X9235440Y8227060D02*
D03*
X8826500Y8628380D02*
D03*
X8780780Y9570720D02*
D03*
X8473440Y9182100D02*
D03*
X8125460Y9558020D02*
D03*
X8458200Y9044940D02*
D03*
X8813800Y8468360D02*
D03*
X8465820Y8905240D02*
D03*
X7180580Y10391140D02*
D03*
X6370320Y10820400D02*
D03*
X6235700Y10208260D02*
D03*
X5700000Y10010000D02*
D03*
X7759700Y9174480D02*
D03*
X7757160Y8981440D02*
D03*
X6858000Y9672320D02*
D03*
X6129020Y9641840D02*
D03*
X6631940Y9019540D02*
D03*
X7774940Y8760460D02*
D03*
X6455697Y8450348D02*
D03*
X5737860Y9169400D02*
D03*
X5560060Y8890000D02*
D03*
X5670000Y7960000D02*
D03*
X5341620Y12263120D02*
D03*
X4780280Y11803380D02*
D03*
X4523740Y12209780D02*
D03*
X4478020Y12009120D02*
D03*
X4114800Y12595860D02*
D03*
X3919220Y12600940D02*
D03*
X3990000Y11220000D02*
D03*
X4950000Y10740000D02*
D03*
X4390000Y10940000D02*
D03*
X4350000Y10510000D02*
D03*
X3310000Y12540000D02*
D03*
X3600000Y11300000D02*
D03*
X3000000Y11800000D02*
D03*
Y11300000D02*
D03*
X2970000Y12280000D02*
D03*
X4860000Y9860000D02*
D03*
X4810000Y10200000D02*
D03*
X5140000Y9810000D02*
D03*
X4860000Y9740000D02*
D03*
X4730000Y9860000D02*
D03*
X4000000Y10100000D02*
D03*
X4730000Y9740000D02*
D03*
X4410000Y9480000D02*
D03*
X4740000Y8760000D02*
D03*
X5331460Y8539480D02*
D03*
X3700000Y10100000D02*
D03*
X3400000D02*
D03*
X3200000D02*
D03*
X2900000D02*
D03*
X2820000Y8980000D02*
D03*
X3670000Y8710000D02*
D03*
X3545000Y8448750D02*
D03*
Y8338750D02*
D03*
X3655000D02*
D03*
X3720000Y7980000D02*
D03*
X3545000Y8228750D02*
D03*
X3435000Y8338750D02*
D03*
X3400000Y7980000D02*
D03*
X2840000D02*
D03*
X9271000Y7348220D02*
D03*
X9204960Y7498080D02*
D03*
X9207500Y7272020D02*
D03*
X9230000Y6670000D02*
D03*
X8999220Y6052820D02*
D03*
X8860932Y5909168D02*
D03*
X8544560Y5935980D02*
D03*
X8455660Y5930900D02*
D03*
X8370000Y5890000D02*
D03*
X7955280Y6883400D02*
D03*
X8150000Y6530000D02*
D03*
X7690000Y6470000D02*
D03*
X6950000Y6850000D02*
D03*
X8110000Y5905078D02*
D03*
X7810000Y5909801D02*
D03*
X7299960Y6263640D02*
D03*
X6980000Y6300000D02*
D03*
X9352280Y5257800D02*
D03*
X8930000Y5650000D02*
D03*
X8820000Y5000000D02*
D03*
X9020000Y4830000D02*
D03*
X8140700Y5748020D02*
D03*
X9184640Y4475480D02*
D03*
X9334500Y3675380D02*
D03*
X8440000Y4170000D02*
D03*
X7820000Y4260000D02*
D03*
X8158480Y4170680D02*
D03*
X7754600Y3276320D02*
D03*
X7700000Y5767301D02*
D03*
X7480000Y5760000D02*
D03*
X7210000Y5030000D02*
D03*
X7588560Y4279777D02*
D03*
X7593224Y4091629D02*
D03*
X7607300Y3812540D02*
D03*
X7278750Y4285000D02*
D03*
X7168750Y4142500D02*
D03*
X5970000Y7720000D02*
D03*
X5680000Y7192500D02*
D03*
X6868160Y6985000D02*
D03*
X6710680Y6962140D02*
D03*
X6339840Y6949440D02*
D03*
X5946440Y7090000D02*
D03*
X6190000Y6970000D02*
D03*
X4230000Y7170000D02*
D03*
X4151303Y7878697D02*
D03*
X5570000Y7050000D02*
D03*
X5350000Y7040000D02*
D03*
X3929380Y6934200D02*
D03*
X3200000Y7090000D02*
D03*
X6750000Y5770000D02*
D03*
X5137500Y5592500D02*
D03*
X4820000Y5950000D02*
D03*
X6718300Y4726940D02*
D03*
X6342380Y4767580D02*
D03*
X5920000Y4460000D02*
D03*
X6920000Y4140000D02*
D03*
X6550000Y3550000D02*
D03*
X5530000Y4460000D02*
D03*
X4490000Y6800000D02*
D03*
X4318442Y6480000D02*
D03*
X4239260Y6550660D02*
D03*
X2930000Y6590000D02*
D03*
X4599940Y5275580D02*
D03*
X3620000Y6200000D02*
D03*
X2900680Y5295900D02*
D03*
X17350740Y11503660D02*
D03*
X10894060Y11478260D02*
D03*
X17170399Y10320020D02*
D03*
X7467600Y4480560D02*
D03*
X7470000Y3180000D02*
D03*
X7330000D02*
D03*
X7000000D02*
D03*
X7160000D02*
D03*
X17282159Y11938014D02*
D03*
X11617960Y12372340D02*
D03*
X17300342Y12083182D02*
D03*
X11516360Y12316460D02*
D03*
X11833860Y12339320D02*
D03*
X17322800Y11831320D02*
D03*
X17345660Y11424920D02*
D03*
X11005820Y11455400D02*
D03*
X17375259Y12059960D02*
D03*
X11445240Y12278360D02*
D03*
X11772914Y12387580D02*
D03*
X17310100Y11757660D02*
D03*
X12877800Y10218460D02*
D03*
X13037820Y10238740D02*
D03*
X10327640Y12303760D02*
D03*
X10284460Y12214860D02*
D03*
X6703060Y12430940D02*
D03*
X8785860Y12303760D02*
D03*
X8977308Y12314868D02*
D03*
X9032240Y12377420D02*
D03*
X9210894Y12366489D02*
D03*
X9138524Y12351878D02*
D03*
X9395460Y11501120D02*
D03*
X7734300Y6631940D02*
D03*
X6913880Y12349480D02*
D03*
X6890000Y12257500D02*
D03*
X7660000Y6170000D02*
D03*
X7180000Y4520000D02*
D03*
X6970000Y11500000D02*
D03*
X7060000D02*
D03*
X6890000Y4320000D02*
D03*
Y4240000D02*
D03*
X6791960Y12458700D02*
D03*
X6780000Y12610000D02*
D03*
X6779260Y11869420D02*
D03*
X6870000Y11490000D02*
D03*
X6776720Y11762740D02*
D03*
X6781800Y11648440D02*
D03*
X6702805Y12542814D02*
D03*
X6578600Y6029960D02*
D03*
X5270000Y7170000D02*
D03*
X4140000Y6670000D02*
D03*
X11231444Y12170573D02*
D03*
X9544575Y8604541D02*
D03*
X9471660Y8608060D02*
D03*
X7231157Y11558657D02*
D03*
X9768840Y7404100D02*
D03*
X9098280Y7305040D02*
D03*
X9060721Y10010681D02*
D03*
X9204960Y10020300D02*
D03*
X10195560Y10038080D02*
D03*
X10198100Y9959340D02*
D03*
X10342880Y9166860D02*
D03*
X10391874Y9237067D02*
D03*
X12228447Y10412417D02*
D03*
X12227560Y10487000D02*
D03*
X10848340Y12260580D02*
D03*
X10711180Y12298051D02*
D03*
X10845800Y12346940D02*
D03*
X11902440Y10360660D02*
D03*
X11983720Y10383520D02*
D03*
X10982960Y7719060D02*
D03*
X3924300Y6741160D02*
D03*
X13141960Y8912860D02*
D03*
X13027660Y8869680D02*
D03*
X12468860Y8780780D02*
D03*
X12613640Y8867140D02*
D03*
X7274560Y11231880D02*
D03*
X9390380Y9992360D02*
D03*
X9469120Y9997440D02*
D03*
X10114280Y12359640D02*
D03*
X10068560Y12263120D02*
D03*
X9062720Y11427460D02*
D03*
X9212580Y10317480D02*
D03*
X9324340D02*
D03*
X9674860Y11501120D02*
D03*
X9622502Y11440418D02*
D03*
X10010140Y11531600D02*
D03*
X9555480Y10269220D02*
D03*
X10066388Y11438839D02*
D03*
X9659620Y10266680D02*
D03*
X9841782Y10235342D02*
D03*
X10058470Y10243996D02*
D03*
X16047720Y8651240D02*
D03*
X16055341Y8750300D02*
D03*
X11150600Y12329160D02*
D03*
X11010900Y12235180D02*
D03*
X11445240Y11191240D02*
D03*
X11356340Y11193780D02*
D03*
X9135780Y11492022D02*
D03*
X10647680Y10995660D02*
D03*
X10586720Y10929620D02*
D03*
X10629900Y12301220D02*
D03*
X9438640Y8145780D02*
D03*
X9550400Y8143240D02*
D03*
X10434320Y12245340D02*
D03*
X10528300D02*
D03*
X10584180Y11473180D02*
D03*
X9804400Y9974580D02*
D03*
X9232900Y11557000D02*
D03*
X9789160Y12362180D02*
D03*
X9494520Y12382500D02*
D03*
X8760460Y9966960D02*
D03*
X9857740Y12303760D02*
D03*
X9497060Y12301220D02*
D03*
X8846820Y9972040D02*
D03*
X9700260D02*
D03*
X9291320Y11483340D02*
D03*
X8656320Y11384280D02*
D03*
X8630920Y11493500D02*
D03*
X9700260Y9563100D02*
D03*
X8839200Y11968480D02*
D03*
X10266680Y11356340D02*
D03*
X10279380Y11478260D02*
D03*
X9525000Y11554460D02*
D03*
X10751820Y11049000D02*
D03*
X8625840Y5791200D02*
D03*
X15036800Y9316720D02*
D03*
X14917419Y9326880D02*
D03*
X9883140Y9583420D02*
D03*
X8910320Y11930380D02*
D03*
X11476763Y8585995D02*
D03*
X13322301Y8902700D02*
D03*
X9961880Y9405620D02*
D03*
X15354300Y7454900D02*
D03*
X11013440Y8214360D02*
D03*
X9893300Y8552180D02*
D03*
X8660302Y12315155D02*
D03*
X8440420Y12352020D02*
D03*
X7233920Y10998200D02*
D03*
X8077200Y11554460D02*
D03*
X5570220Y11153140D02*
D03*
X7899400Y11877040D02*
D03*
X4894580Y11689080D02*
D03*
X5346700Y12136120D02*
D03*
X7305000Y11480000D02*
D03*
X3853180Y12040769D02*
D03*
X5344160Y11877401D02*
D03*
X8710000Y5520000D02*
D03*
X9248140Y5496560D02*
D03*
X9819640Y5529580D02*
D03*
X5341620Y12026900D02*
D03*
X7417500Y11455000D02*
D03*
X10076180Y10861040D02*
D03*
X7907020Y10784840D02*
D03*
X7983220Y10998200D02*
D03*
X8168640Y11094720D02*
D03*
X10416540Y9319260D02*
D03*
X10363200Y9489440D02*
D03*
X10952480Y9050020D02*
D03*
X11014660Y9122460D02*
D03*
X11135360Y9133840D02*
D03*
X11115040Y9255760D02*
D03*
X7348220Y10939780D02*
D03*
X8061960Y11338560D02*
D03*
X7957820Y11417300D02*
D03*
X7807960Y11490960D02*
D03*
X7680960Y11529060D02*
D03*
X12336545Y8851654D02*
D03*
X12488780Y8877300D02*
D03*
X12305570Y8923240D02*
D03*
X12364720Y9258300D02*
D03*
X12400280Y9507220D02*
D03*
X10530840Y10784840D02*
D03*
X13439140Y9298940D02*
D03*
X13583920Y9331960D02*
D03*
X13360400Y9227820D02*
D03*
X10160000Y9408160D02*
D03*
X8716940Y12252960D02*
D03*
X12644120Y9517380D02*
D03*
X11120120Y12021820D02*
D03*
X12438380Y9354820D02*
D03*
X12727940Y8851900D02*
D03*
X12230100Y9415780D02*
D03*
X8514080Y12242800D02*
D03*
X7380000Y12210000D02*
D03*
X5980000Y7590000D02*
D03*
X8130617Y4690000D02*
D03*
X9400000Y6400000D02*
D03*
X11206480Y11445240D02*
D03*
X4220000Y9990000D02*
D03*
X7390000Y11330000D02*
D03*
X9530080Y5646420D02*
D03*
X7660640Y11369040D02*
D03*
X9646920Y5671820D02*
D03*
X8293100Y11424920D02*
D03*
X7472680Y12341860D02*
D03*
X7266940Y11155680D02*
D03*
X10520680Y12054840D02*
D03*
X11389360D02*
D03*
X9387840Y7744460D02*
D03*
X4430000Y9990000D02*
D03*
X4267200Y11922760D02*
D03*
X11384280Y8211820D02*
D03*
X11498580Y7840980D02*
D03*
X10878820Y7881620D02*
D03*
X10530840Y8072120D02*
D03*
X10429240Y7995920D02*
D03*
X15356841Y7538720D02*
D03*
X11018520Y7434580D02*
D03*
X10942320Y7264400D02*
D03*
X10515600Y6741160D02*
D03*
X9657080Y2926080D02*
D03*
X9286240Y8018780D02*
D03*
X9179560Y8023860D02*
D03*
X8810000Y6520000D02*
D03*
X8560000D02*
D03*
X9474200Y5372100D02*
D03*
X8930000Y4920000D02*
D03*
X8670000Y4930000D02*
D03*
X8040000Y6090000D02*
D03*
X7950000Y6150000D02*
D03*
X7870000Y4860000D02*
D03*
X7780000D02*
D03*
X7690000D02*
D03*
X7600000D02*
D03*
X2704680Y11700000D02*
D03*
X2720000Y6960000D02*
D03*
X11269550Y7649355D02*
D03*
X11440160Y7752080D02*
D03*
X11470640Y8069580D02*
D03*
X11046460Y7200900D02*
D03*
X10746740Y8255000D02*
D03*
X11076940Y7675880D02*
D03*
X11351260Y7650480D02*
D03*
X4030000Y5500000D02*
D03*
X4740000Y4470000D02*
D03*
X4340000D02*
D03*
X3950000Y5790000D02*
D03*
X3570000Y11930000D02*
D03*
X4160000Y10530000D02*
D03*
X4050000Y10880000D02*
D03*
X5220000Y10220000D02*
D03*
X5950000Y9430000D02*
D03*
X3330000Y9280000D02*
D03*
X2880000Y11760000D02*
D03*
X3630000Y7260000D02*
D03*
X3550000Y6560000D02*
D03*
X3890000Y7170000D02*
D03*
X3128540Y6289600D02*
D03*
X3490000Y7290000D02*
D03*
X4080000Y6960000D02*
D03*
X4066900Y7173100D02*
D03*
X4190000Y10650000D02*
D03*
X4430000Y10590000D02*
D03*
X3420000Y9560000D02*
D03*
X3700000Y7550000D02*
D03*
X3310000Y7250000D02*
D03*
X4360000Y9030000D02*
D03*
X4530000Y8350000D02*
D03*
X3930000Y8380000D02*
D03*
X4200000Y7690000D02*
D03*
X4280000Y8170000D02*
D03*
X3030000Y8060000D02*
D03*
X3210000Y8320000D02*
D03*
Y9150000D02*
D03*
X4070000Y9400000D02*
D03*
X5320000Y9190000D02*
D03*
X4200000Y9260000D02*
D03*
X5320000Y9870000D02*
D03*
X4880000Y9390000D02*
D03*
X5090000D02*
D03*
X5000000Y10210000D02*
D03*
X4630000D02*
D03*
X4520000Y10610000D02*
D03*
X4630000Y10730000D02*
D03*
X4260000Y10780000D02*
D03*
X3400000Y11700000D02*
D03*
X3200000Y11800000D02*
D03*
D169*
X6730742Y4462930D02*
D03*
X6895898D02*
D03*
D170*
X12611100Y9317360D02*
D03*
Y9437360D02*
D03*
Y9357360D02*
D03*
Y9397360D02*
D03*
X12666100D02*
D03*
Y9437360D02*
D03*
Y9317360D02*
D03*
Y9357360D02*
D03*
X11350160Y8971600D02*
D03*
Y9011600D02*
D03*
Y9051600D02*
D03*
Y8931600D02*
D03*
X11405160Y8971600D02*
D03*
Y9011600D02*
D03*
Y9051600D02*
D03*
Y8931600D02*
D03*
%TF.MD5,cb74a14d26d9a1f558a854bb6e383bdc*%
M02*
